<svg width="149" height="58" viewBox="0 0 149 58" fill="none" xmlns="http://www.w3.org/2000/svg">
<rect x="91" width="58" height="58" rx="29" fill="#1219C6"/>
<path d="M25 19.2L20.14 39L15.64 39L12.73 24.78L9.82 39L5.32 39L0.85 19.2L4.39 19.2L7.9 36.75L11.38 19.2L14.71 19.2L18.22 36.75L21.7 19.2L25 19.2ZM37.1995 37.62C36.8195 38.32 36.2595 38.83 35.5195 39.15C34.7995 39.49 33.9795 39.66 33.0595 39.66C31.6795 39.66 30.5195 39.24 29.5795 38.4C28.6595 37.56 28.1995 36.47 28.1995 35.13C28.1995 31.89 31.0895 30.27 36.8695 30.27L36.8695 27.66C36.8695 26.66 36.7195 25.92 36.4195 25.44C36.1195 24.94 35.5495 24.69 34.7095 24.69C34.0095 24.69 33.4295 24.88 32.9695 25.26C32.5095 25.62 32.2795 26.13 32.2795 26.79C32.2795 27.21 32.3595 27.66 32.5195 28.14C32.2395 28.36 31.8395 28.47 31.3195 28.47C30.5995 28.47 30.0295 28.29 29.6095 27.93C29.1895 27.57 28.9795 27.05 28.9795 26.37C28.9795 25.41 29.5195 24.63 30.5995 24.03C31.6795 23.41 33.1195 23.1 34.9195 23.1C36.2395 23.1 37.2795 23.3 38.0395 23.7C38.7995 24.08 39.3395 24.68 39.6595 25.5C39.9995 26.3 40.1695 27.38 40.1695 28.74L40.1695 36.54C40.1695 37.52 40.4795 38.18 41.0995 38.52C40.9395 38.82 40.6995 39.05 40.3795 39.21C40.0795 39.37 39.7295 39.45 39.3295 39.45C38.7495 39.45 38.2695 39.29 37.8895 38.97C37.5095 38.63 37.2795 38.18 37.1995 37.62ZM34.2295 37.65C35.1095 37.65 35.7695 37.32 36.2095 36.66C36.6495 35.98 36.8695 35.14 36.8695 34.14L36.8695 31.77C33.4895 31.77 31.7995 32.85 31.7995 35.01C31.7995 35.81 32.0095 36.45 32.4295 36.93C32.8695 37.41 33.4695 37.65 34.2295 37.65ZM45.3895 25.05L45.3595 24.15C46.2595 23.79 47.1095 23.31 47.9095 22.71C48.7295 22.11 49.4195 21.45 49.9795 20.73L50.9095 20.73L50.9095 23.7L53.6695 23.7L53.6695 25.05L50.8495 25.05L50.8495 35.97C50.8495 36.57 50.9595 37.02 51.1795 37.32C51.3995 37.62 51.7495 37.81 52.2295 37.89C52.1295 38.35 51.8595 38.72 51.4195 39C50.9995 39.3 50.5095 39.45 49.9495 39.45C48.3295 39.45 47.5195 38.53 47.5195 36.69L47.5195 25.05L45.3895 25.05ZM64.3841 24.87C62.3841 24.87 61.3841 27.05 61.3841 31.41C61.3841 33.19 61.6041 34.63 62.0441 35.73C62.5041 36.81 63.3841 37.35 64.6841 37.35C65.5641 37.35 66.3141 37.12 66.9341 36.66C67.5741 36.18 68.0041 35.51 68.2241 34.65C68.5641 34.81 68.8041 35 68.9441 35.22C69.1041 35.42 69.1841 35.7 69.1841 36.06C69.1841 36.78 68.9441 37.42 68.4641 37.98C68.0041 38.52 67.4041 38.93 66.6641 39.21C65.9241 39.51 65.1641 39.66 64.3841 39.66C62.1841 39.66 60.5541 38.95 59.4941 37.53C58.4341 36.09 57.9041 34.16 57.9041 31.74C57.9041 29.16 58.4741 27.08 59.6141 25.5C60.7741 23.9 62.5141 23.1 64.8341 23.1C66.1941 23.1 67.3141 23.38 68.1941 23.94C69.0741 24.5 69.5141 25.36 69.5141 26.52C69.5141 27.2 69.3041 27.72 68.8841 28.08C68.4641 28.44 67.8941 28.62 67.1741 28.62C66.9541 28.62 66.7241 28.59 66.4841 28.53C66.2641 28.47 66.0841 28.39 65.9441 28.29C66.1041 27.81 66.1841 27.36 66.1841 26.94C66.1841 25.56 65.5841 24.87 64.3841 24.87ZM78.8828 21.03C78.8828 23.21 78.7828 24.81 78.5828 25.83C79.0028 24.93 79.5928 24.25 80.3528 23.79C81.1128 23.33 82.0028 23.1 83.0228 23.1C84.7028 23.1 85.8728 23.57 86.5328 24.51C87.1928 25.43 87.5228 26.84 87.5228 28.74L87.5228 36.54C87.5228 37.52 87.8328 38.18 88.4528 38.52C88.2928 38.82 88.0328 39.05 87.6728 39.21C87.3128 39.37 86.9328 39.45 86.5328 39.45C85.7528 39.45 85.1728 39.23 84.7928 38.79C84.4128 38.35 84.2228 37.73 84.2228 36.93L84.2228 29.16C84.2228 27.9 84.0828 26.96 83.8028 26.34C83.5228 25.72 82.9028 25.41 81.9428 25.41C80.7228 25.41 79.9028 25.95 79.4828 27.03C79.0828 28.11 78.8828 29.5 78.8828 31.2L78.8828 39L75.5828 39L75.5828 18L78.8828 17.64L78.8828 21.03Z" fill="#C4D1D4"/>
<path d="M108.14 19.2L108.14 39L104.63 39L104.63 30.09L97.9096 30.09L97.9096 39L94.3996 39L94.3996 19.2L97.9096 19.2L97.9096 27.87L104.63 27.87L104.63 19.2L108.14 19.2ZM126.953 36.54C126.953 37.52 127.263 38.18 127.883 38.52C127.723 38.82 127.483 39.05 127.163 39.21C126.863 39.37 126.513 39.45 126.113 39.45C125.533 39.45 125.053 39.29 124.673 38.97C124.293 38.63 124.063 38.18 123.983 37.62C123.663 38.28 123.143 38.78 122.423 39.12C121.723 39.48 120.963 39.66 120.143 39.66C118.703 39.66 117.603 39.35 116.843 38.73C116.103 38.09 115.613 37.23 115.373 36.15C115.133 35.05 115.013 33.64 115.013 31.92L115.013 23.7L118.313 23.7L118.313 31.77C118.313 32.99 118.353 34 118.433 34.8C118.533 35.58 118.783 36.25 119.183 36.81C119.583 37.37 120.193 37.65 121.013 37.65C121.893 37.65 122.553 37.32 122.993 36.66C123.433 35.98 123.653 35.14 123.653 34.14L123.653 23.7L126.953 23.7L126.953 36.54ZM137.61 21.03C137.61 23.21 137.51 24.81 137.31 25.83C137.69 24.99 138.26 24.33 139.02 23.85C139.78 23.35 140.62 23.1 141.54 23.1C143.44 23.1 144.82 23.86 145.68 25.38C146.54 26.9 146.97 28.82 146.97 31.14C146.97 33.7 146.42 35.76 145.32 37.32C144.22 38.88 142.53 39.66 140.25 39.66C139.27 39.66 138.23 39.53 137.13 39.27C136.05 39.03 135.11 38.69 134.31 38.25L134.31 18L137.61 17.64L137.61 21.03ZM137.61 36.96C138.49 37.56 139.42 37.86 140.4 37.86C141.62 37.86 142.42 37.24 142.8 36C143.18 34.76 143.37 33.19 143.37 31.29C143.37 29.59 143.18 28.19 142.8 27.09C142.44 25.97 141.69 25.41 140.55 25.41C139.39 25.41 138.61 25.96 138.21 27.06C137.81 28.14 137.61 29.52 137.61 31.2L137.61 36.96Z" fill="#0C111B"/>
</svg>
