<svg width="64" height="55" viewBox="0 0 64 55" fill="none" xmlns="http://www.w3.org/2000/svg">
<path d="M-1.06179e-05 7C-1.06179e-05 3.13401 3.134 0 6.99999 0H57C60.866 0 64 3.13401 64 7V48C64 51.866 60.866 55 57 55H6.99999C3.134 55 -1.06179e-05 51.866 -1.06179e-05 48V7Z" fill="#0C111B"/>
<rect x="28" y="11" width="33" height="33" rx="16.5" fill="#1219C6"/>
<path d="M30.8 16.24L24.968 40L19.568 40L16.076 22.936L12.584 40L7.184 40L1.82 16.24L6.068 16.24L10.28 37.3L14.456 16.24L18.452 16.24L22.664 37.3L26.84 16.24L30.8 16.24Z" fill="#C4D1D4"/>
<path d="M53.0452 16.24L53.0452 40L48.8332 40L48.8332 29.308L40.7692 29.308L40.7692 40L36.5572 40L36.5572 16.24L40.7692 16.24L40.7692 26.644L48.8332 26.644L48.8332 16.24L53.0452 16.24Z" fill="#0C111B"/>
</svg>
