<svg width="30" height="41" viewBox="0 0 30 41" fill="none" xmlns="http://www.w3.org/2000/svg">
<path fill-rule="evenodd" clip-rule="evenodd" d="M30 32.6251C30 39.2601 21.4394 40.027 15.0019 40.027L14.5412 40.0266C10.4398 40.016 0 39.7408 0 32.5848C0 26.0852 8.21658 25.2166 14.6051 25.1839L15.4626 25.1833C19.5637 25.1939 30 25.4691 30 32.6251ZM15.0019 28.2024C6.93182 28.2024 2.84091 29.676 2.84091 32.5848C2.84091 35.5198 6.93182 37.0075 15.0019 37.0075C23.0701 37.0075 27.1591 35.5339 27.1591 32.6251C27.1591 29.6901 23.0701 28.2024 15.0019 28.2024ZM15.0019 0.0270386C20.5473 0.0270386 25.0568 4.82211 25.0568 10.7163C25.0568 16.6105 20.5473 21.4036 15.0019 21.4036H14.9413C9.4072 21.3854 4.92424 16.5884 4.94312 10.7103C4.94312 4.82211 9.45455 0.0270386 15.0019 0.0270386ZM15.0019 2.90167C10.947 2.90167 7.64769 6.40638 7.64769 10.7163C7.63447 15.0121 10.9091 18.5148 14.947 18.5309L15.0019 19.9683V18.5309C19.0549 18.5309 22.3523 15.0242 22.3523 10.7163C22.3523 6.40638 19.0549 2.90167 15.0019 2.90167Z" fill="#C4D1D4"/>
</svg>
