<svg width="22" height="25" viewBox="0 0 22 25" fill="none" xmlns="http://www.w3.org/2000/svg">
<path fill-rule="evenodd" clip-rule="evenodd" d="M10.573 0C16.4028 0 21.1449 5.26984 21.1449 11.7486C21.1449 14.8052 20.0894 17.593 18.362 19.6853L21.7609 23.4545C22.079 23.808 22.0801 24.3799 21.762 24.7334C21.6035 24.9119 21.3939 25 21.1855 25C20.9781 25 20.7697 24.9119 20.6101 24.7358L17.1702 20.9237C15.3607 22.5342 13.0663 23.4983 10.573 23.4983C4.74314 23.4983 0 18.2273 0 11.7486C0 5.26984 4.74314 0 10.573 0ZM10.573 1.8097C5.64096 1.8097 1.62845 6.26758 1.62845 11.7486C1.62845 17.2295 5.64096 21.6886 10.573 21.6886C15.5039 21.6886 19.5165 17.2295 19.5165 11.7486C19.5165 6.26758 15.5039 1.8097 10.573 1.8097Z" fill="#C4D1D4" fill-opacity="0.5"/>
</svg>
